<?xml version="1.0" encoding="UTF-8" standalone="no"?>
<!-- Generator: Adobe Illustrator 25.2.1, SVG Export Plug-In . SVG Version: 6.00 Build 0)  -->

<svg
   xmlns:dc="http://purl.org/dc/elements/1.1/"
   xmlns:cc="http://creativecommons.org/ns#"
   xmlns:rdf="http://www.w3.org/1999/02/22-rdf-syntax-ns#"
   xmlns:svg="http://www.w3.org/2000/svg"
   xmlns="http://www.w3.org/2000/svg"
   xmlns:sodipodi="http://sodipodi.sourceforge.net/DTD/sodipodi-0.dtd"
   xmlns:inkscape="http://www.inkscape.org/namespaces/inkscape"
   version="1.1"
   id="Vrstva_1"
   x="0px"
   y="0px"
   viewBox="0 0 671.74998 340.78001"
   xml:space="preserve"
   sodipodi:docname="logotyp.svg"
   width="671.75"
   height="340.78"
   inkscape:version="0.92.5 (2060ec1f9f, 2020-04-08)"><metadata
   id="metadata43"><rdf:RDF><cc:Work
       rdf:about=""><dc:format>image/svg+xml</dc:format><dc:type
         rdf:resource="http://purl.org/dc/dcmitype/StillImage" /><dc:title></dc:title></cc:Work></rdf:RDF></metadata><defs
   id="defs41" /><sodipodi:namedview
   pagecolor="#ffffff"
   bordercolor="#666666"
   borderopacity="1"
   objecttolerance="10"
   gridtolerance="10"
   guidetolerance="10"
   inkscape:pageopacity="0"
   inkscape:pageshadow="2"
   inkscape:window-width="1920"
   inkscape:window-height="1013"
   id="namedview39"
   showgrid="false"
   fit-margin-top="0"
   fit-margin-left="0"
   fit-margin-right="0"
   fit-margin-bottom="0"
   inkscape:zoom="0.79937956"
   inkscape:cx="334.20876"
   inkscape:cy="124.88438"
   inkscape:window-x="1920"
   inkscape:window-y="30"
   inkscape:window-maximized="1"
   inkscape:current-layer="Vrstva_1" />
<style
   type="text/css"
   id="style2">
	.st0{fill:#FFFFFF;}
</style>

<g
   id="g36"
   transform="translate(-89.02,-81.32)">
	<g
   id="g32">
		<path
   d="m 112.35,129.9 c -4.49,4.07 -12.41,5.78 -20.12,5.78 h -3.21 v -27.61 h 2.35 c 12.63,0 22.68,-7.06 26.54,-20.33 h 23.11 V 236.47 H 112.34 V 129.9 Z"
   id="path6"
   inkscape:connector-curvature="0" />
		<path
   d="m 357.16,84.53 h 40.23 c 31.67,0 48.79,18.19 48.79,52.43 v 44.94 c 0,35.74 -16.91,54.57 -49.01,54.57 H 357.15 V 84.53 Z m 38.95,130.33 c 13.27,0 19.47,-10.91 19.47,-30.82 v -48.36 c 0,-20.33 -5.78,-29.53 -19.47,-29.53 h -9.2 v 108.71 z"
   id="path8"
   inkscape:connector-curvature="0" />
		<path
   d="m 534.35,213.57 v 22.9 H 463.51 V 84.53 h 69.34 v 22.9 h -39.59 v 39.38 h 36.59 v 22.9 h -36.59 v 43.87 h 41.09 z"
   id="path10"
   inkscape:connector-curvature="0" />
		<path
   d="m 589.35,168.63 -10.91,23.54 v 44.3 H 548.69 V 84.53 h 29.75 v 71.05 l 29.32,-71.05 h 30.6 l -27.18,59.28 28.46,92.66 h -31.67 z"
   id="path12"
   inkscape:connector-curvature="0" />
		<path
   d="m 708.97,200.95 h -27.61 l -5.56,35.52 H 646.05 L 675.8,84.53 h 38.95 l 29.53,151.94 h -29.75 z m -3.21,-21.62 -7.49,-47.94 c -1.07,-7.28 -1.93,-13.48 -2.78,-21.61 h -0.64 c -0.64,8.13 -1.71,14.34 -2.78,21.61 l -7.49,47.94 z"
   id="path14"
   inkscape:connector-curvature="0" />
		<path
   d="m 132.68,289.64 v 39.38 h 36.6 v 22.9 h -36.6 v 66.56 H 102.93 V 266.53 h 69.34 v 23.11 z"
   id="path16"
   inkscape:connector-curvature="0" />
		<path
   d="m 255.73,395.57 v 22.9 H 184.9 V 266.53 h 69.34 v 22.9 h -39.59 v 39.38 h 36.6 v 22.9 h -36.6 v 43.87 h 41.08 z"
   id="path18"
   inkscape:connector-curvature="0" />
		<path
   d="m 261.93,380.59 v -12.2 l 30.17,-5.78 v 17.33 c 0,12.2 4.07,19.26 12.84,19.26 8.56,0 11.98,-6.42 11.98,-14.77 v -6.21 c 0,-9.42 -1.5,-14.12 -11.13,-20.33 l -21.61,-13.27 c -15.62,-9.42 -20.97,-20.76 -20.97,-36.81 v -7.92 c 0,-24.82 18.4,-37.02 41.73,-37.02 25.89,0 42.16,10.27 42.16,38.95 v 11.13 l -29.53,5.56 v -16.26 c 0,-10.27 -3.64,-16.91 -12.63,-16.91 -7.49,0 -11.77,5.56 -11.77,12.84 v 6.85 c 0,7.92 3.85,13.48 10.91,17.98 l 21.83,13.27 c 17.12,10.49 21.4,21.19 21.4,37.24 v 11.56 c 0,21.83 -14.55,37.02 -42.59,37.02 -27.38,0.01 -42.79,-16.04 -42.79,-41.51 z"
   id="path20"
   inkscape:connector-curvature="0" />
		<path
   d="M 437.84,291.78 H 408.95 V 418.47 H 379.42 V 291.78 h -28.89 v -25.25 h 87.31 z"
   id="path22"
   inkscape:connector-curvature="0" />
		<path
   d="M 448.54,418.47 V 266.53 h 29.75 v 151.94 z"
   id="path24"
   inkscape:connector-curvature="0" />
		<path
   d="m 489.63,266.53 h 30.6 l 14.34,99.08 c 1.5,10.27 2.14,17.76 2.57,25.68 h 1.07 c 0.43,-7.92 1.07,-15.41 2.35,-25.68 l 14.34,-99.08 h 30.6 l -28.89,151.94 h -37.88 z"
   id="path26"
   inkscape:connector-curvature="0" />
		<path
   d="m 644.78,382.95 h -27.61 l -5.56,35.52 h -29.75 l 29.75,-151.94 h 38.95 l 29.53,151.94 h -29.75 z m -3.21,-21.62 -7.49,-47.94 c -1.07,-7.28 -1.93,-13.48 -2.78,-21.61 h -0.64 c -0.64,8.13 -1.71,14.34 -2.78,21.61 l -7.49,47.94 z"
   id="path28"
   inkscape:connector-curvature="0" />
		<path
   d="m 693.57,266.53 h 29.75 v 125.83 h 37.45 v 26.11 h -67.2 z"
   id="path30"
   inkscape:connector-curvature="0" />
	</g>
	<path
   d="m 262.06,81.32 h -28.31 c -44.06,0 -79.79,35.72 -79.79,79.79 0,44.06 35.72,79.79 79.79,79.79 h 28.31 c 44.06,0 79.79,-35.72 79.79,-79.79 0,-44.06 -35.72,-79.79 -79.79,-79.79 z"
   id="path34"
   inkscape:connector-curvature="0" />
</g>
</svg>